<svg width="20" height="20" viewBox="0 0 20 20" fill="none" xmlns="http://www.w3.org/2000/svg">
<path d="M9.99996 7.5C9.33692 7.5 8.70103 7.7634 8.23219 8.23224C7.76335 8.70108 7.49996 9.33696 7.49996 10C7.49996 10.663 7.76335 11.2989 8.23219 11.7678C8.70103 12.2366 9.33692 12.5 9.99996 12.5C10.663 12.5 11.2989 12.2366 11.7677 11.7678C12.2366 11.2989 12.5 10.663 12.5 10C12.5 9.33696 12.2366 8.70108 11.7677 8.23224C11.2989 7.7634 10.663 7.5 9.99996 7.5ZM9.99996 5.83334C11.105 5.83334 12.1648 6.27233 12.9462 7.05373C13.7276 7.83513 14.1666 8.89494 14.1666 10C14.1666 11.1051 13.7276 12.1649 12.9462 12.9463C12.1648 13.7277 11.105 14.1667 9.99996 14.1667C8.89489 14.1667 7.83508 13.7277 7.05368 12.9463C6.27228 12.1649 5.83329 11.1051 5.83329 10C5.83329 8.89494 6.27228 7.83513 7.05368 7.05373C7.83508 6.27233 8.89489 5.83334 9.99996 5.83334ZM15.4166 5.62501C15.4166 5.90127 15.3069 6.16622 15.1115 6.36157C14.9162 6.55692 14.6512 6.66667 14.375 6.66667C14.0987 6.66667 13.8337 6.55692 13.6384 6.36157C13.443 6.16622 13.3333 5.90127 13.3333 5.62501C13.3333 5.34874 13.443 5.08379 13.6384 4.88844C13.8337 4.69308 14.0987 4.58334 14.375 4.58334C14.6512 4.58334 14.9162 4.69308 15.1115 4.88844C15.3069 5.08379 15.4166 5.34874 15.4166 5.62501ZM9.99996 3.33334C7.93829 3.33334 7.60163 3.33917 6.64246 3.38167C5.98913 3.41251 5.55079 3.5 5.14413 3.65834C4.80381 3.78329 4.49614 3.98356 4.24413 4.24417C3.9833 4.49617 3.78275 4.80382 3.65746 5.14417C3.49913 5.5525 3.41163 5.99001 3.38163 6.64251C3.33829 7.56251 3.33329 7.88417 3.33329 10C3.33329 12.0617 3.33913 12.3983 3.38163 13.3575C3.41246 14.01 3.49996 14.4492 3.65746 14.855C3.79913 15.2175 3.96579 15.4783 4.24246 15.755C4.52329 16.035 4.78413 16.2025 5.14246 16.3408C5.55413 16.5 5.99246 16.5883 6.64246 16.6183C7.56246 16.6617 7.88413 16.6667 9.99996 16.6667C12.0616 16.6667 12.3983 16.6608 13.3575 16.6183C14.0091 16.5875 14.4483 16.5 14.855 16.3425C15.1948 16.2169 15.5022 16.0171 15.755 15.7575C16.0358 15.4767 16.2033 15.2158 16.3416 14.8575C16.5 14.4467 16.5883 14.0075 16.6183 13.3575C16.6616 12.4375 16.6666 12.1158 16.6666 10C16.6666 7.93834 16.6608 7.60167 16.6183 6.64251C16.5875 5.99084 16.5 5.55084 16.3416 5.14417C16.216 4.80417 16.0159 4.49664 15.7558 4.24417C15.5039 3.98321 15.1962 3.78264 14.8558 3.65751C14.4475 3.49917 14.0091 3.41167 13.3575 3.38167C12.4375 3.33834 12.1158 3.33334 9.99996 3.33334ZM9.99996 1.66667C12.2641 1.66667 12.5466 1.67501 13.435 1.71667C14.3225 1.75834 14.9266 1.89751 15.4583 2.10417C16.0083 2.31584 16.4716 2.60251 16.935 3.06501C17.3587 3.48159 17.6866 3.9855 17.8958 4.54167C18.1016 5.0725 18.2416 5.6775 18.2833 6.565C18.3225 7.45334 18.3333 7.73584 18.3333 10C18.3333 12.2642 18.325 12.5467 18.2833 13.435C18.2416 14.3225 18.1016 14.9267 17.8958 15.4583C17.6872 16.0148 17.3592 16.5189 16.935 16.935C16.5183 17.3586 16.0144 17.6865 15.4583 17.8958C14.9275 18.1017 14.3225 18.2417 13.435 18.2833C12.5466 18.3225 12.2641 18.3333 9.99996 18.3333C7.73579 18.3333 7.45329 18.325 6.56496 18.2833C5.67746 18.2417 5.07329 18.1017 4.54163 17.8958C3.98523 17.6871 3.48123 17.3591 3.06496 16.935C2.64113 16.5185 2.31324 16.0146 2.10413 15.4583C1.89746 14.9275 1.75829 14.3225 1.71663 13.435C1.67746 12.5467 1.66663 12.2642 1.66663 10C1.66663 7.73584 1.67496 7.45334 1.71663 6.565C1.75829 5.67667 1.89746 5.07334 2.10413 4.54167C2.31266 3.98515 2.64063 3.48111 3.06496 3.06501C3.48135 2.64103 3.98532 2.31311 4.54163 2.10417C5.07329 1.89751 5.67663 1.75834 6.56496 1.71667C7.45329 1.67751 7.73579 1.66667 9.99996 1.66667Z" fill="#2C3136"/>
</svg>
