<svg width="166" height="32" viewBox="0 0 166 32" fill="none" xmlns="http://www.w3.org/2000/svg">
<g clip-path="url(#clip0_307_59)">
<path d="M0 16C0 7.16344 7.16344 0 16 0H37C45.8366 0 53 7.16344 53 16V32H16C7.16344 32 0 24.8366 0 16Z" fill="#2C3136"/>
<path d="M37 6H16C10.4772 6 6 10.4772 6 16C6 21.5228 10.4772 26 16 26H37C42.5228 26 47 21.5228 47 16C47 10.4772 42.5228 6 37 6Z" fill="#F0F4F7"/>
<path d="M16 21C18.7614 21 21 18.7614 21 16C21 13.2386 18.7614 11 16 11C13.2386 11 11 13.2386 11 16C11 18.7614 13.2386 21 16 21Z" fill="black"/>
<path d="M14 15C14.5523 15 15 14.5523 15 14C15 13.4477 14.5523 13 14 13C13.4477 13 13 13.4477 13 14C13 14.5523 13.4477 15 14 15Z" fill="white"/>
<path d="M38 21C40.7614 21 43 18.7614 43 16C43 13.2386 40.7614 11 38 11C35.2386 11 33 13.2386 33 16C33 18.7614 35.2386 21 38 21Z" fill="black"/>
<path d="M36 15C36.5523 15 37 14.5523 37 14C37 13.4477 36.5523 13 36 13C35.4477 13 35 13.4477 35 14C35 14.5523 35.4477 15 36 15Z" fill="white"/>
</g>
<path d="M72.34 8.96V11.7H68.62V23H65.2V11.7H61.48V8.96H72.34ZM84.7764 17.24C84.7764 17.56 84.7564 17.8933 84.7164 18.24H76.9764C77.0297 18.9333 77.2497 19.4667 77.6364 19.84C78.0364 20.2 78.5231 20.38 79.0964 20.38C79.9497 20.38 80.5431 20.02 80.8764 19.3H84.5164C84.3297 20.0333 83.9897 20.6933 83.4964 21.28C83.0164 21.8667 82.4097 22.3267 81.6764 22.66C80.9431 22.9933 80.1231 23.16 79.2164 23.16C78.1231 23.16 77.1497 22.9267 76.2964 22.46C75.4431 21.9933 74.7764 21.3267 74.2964 20.46C73.8164 19.5933 73.5764 18.58 73.5764 17.42C73.5764 16.26 73.8097 15.2467 74.2764 14.38C74.7564 13.5133 75.4231 12.8467 76.2764 12.38C77.1297 11.9133 78.1097 11.68 79.2164 11.68C80.2964 11.68 81.2564 11.9067 82.0964 12.36C82.9364 12.8133 83.5897 13.46 84.0564 14.3C84.5364 15.14 84.7764 16.12 84.7764 17.24ZM81.2764 16.34C81.2764 15.7533 81.0764 15.2867 80.6764 14.94C80.2764 14.5933 79.7764 14.42 79.1764 14.42C78.6031 14.42 78.1164 14.5867 77.7164 14.92C77.3297 15.2533 77.0897 15.7267 76.9964 16.34H81.2764ZM90.2006 13.7C90.6006 13.0867 91.1006 12.6067 91.7006 12.26C92.3006 11.9 92.9673 11.72 93.7006 11.72V15.34H92.7606C91.9073 15.34 91.2673 15.5267 90.8406 15.9C90.414 16.26 90.2006 16.9 90.2006 17.82V23H86.7806V11.84H90.2006V13.7ZM98.9553 13.42C99.2886 12.9 99.7486 12.48 100.335 12.16C100.922 11.84 101.609 11.68 102.395 11.68C103.315 11.68 104.149 11.9133 104.895 12.38C105.642 12.8467 106.229 13.5133 106.655 14.38C107.095 15.2467 107.315 16.2533 107.315 17.4C107.315 18.5467 107.095 19.56 106.655 20.44C106.229 21.3067 105.642 21.98 104.895 22.46C104.149 22.9267 103.315 23.16 102.395 23.16C101.622 23.16 100.935 23 100.335 22.68C99.7486 22.36 99.2886 21.9467 98.9553 21.44V28.32H95.5353V11.84H98.9553V13.42ZM103.835 17.4C103.835 16.5467 103.595 15.88 103.115 15.4C102.649 14.9067 102.069 14.66 101.375 14.66C100.695 14.66 100.115 14.9067 99.6353 15.4C99.1686 15.8933 98.9353 16.5667 98.9353 17.42C98.9353 18.2733 99.1686 18.9467 99.6353 19.44C100.115 19.9333 100.695 20.18 101.375 20.18C102.055 20.18 102.635 19.9333 103.115 19.44C103.595 18.9333 103.835 18.2533 103.835 17.4ZM114.39 23.16C113.296 23.16 112.31 22.9267 111.43 22.46C110.563 21.9933 109.876 21.3267 109.37 20.46C108.876 19.5933 108.63 18.58 108.63 17.42C108.63 16.2733 108.883 15.2667 109.39 14.4C109.896 13.52 110.59 12.8467 111.47 12.38C112.35 11.9133 113.336 11.68 114.43 11.68C115.523 11.68 116.51 11.9133 117.39 12.38C118.27 12.8467 118.963 13.52 119.47 14.4C119.976 15.2667 120.23 16.2733 120.23 17.42C120.23 18.5667 119.97 19.58 119.45 20.46C118.943 21.3267 118.243 21.9933 117.35 22.46C116.47 22.9267 115.483 23.16 114.39 23.16ZM114.39 20.2C115.043 20.2 115.596 19.96 116.05 19.48C116.516 19 116.75 18.3133 116.75 17.42C116.75 16.5267 116.523 15.84 116.07 15.36C115.63 14.88 115.083 14.64 114.43 14.64C113.763 14.64 113.21 14.88 112.77 15.36C112.33 15.8267 112.11 16.5133 112.11 17.42C112.11 18.3133 112.323 19 112.75 19.48C113.19 19.96 113.736 20.2 114.39 20.2ZM125.664 13.42C125.997 12.9 126.457 12.48 127.044 12.16C127.631 11.84 128.317 11.68 129.104 11.68C130.024 11.68 130.857 11.9133 131.604 12.38C132.351 12.8467 132.937 13.5133 133.364 14.38C133.804 15.2467 134.024 16.2533 134.024 17.4C134.024 18.5467 133.804 19.56 133.364 20.44C132.937 21.3067 132.351 21.98 131.604 22.46C130.857 22.9267 130.024 23.16 129.104 23.16C128.331 23.16 127.644 23 127.044 22.68C126.457 22.36 125.997 21.9467 125.664 21.44V28.32H122.244V11.84H125.664V13.42ZM130.544 17.4C130.544 16.5467 130.304 15.88 129.824 15.4C129.357 14.9067 128.777 14.66 128.084 14.66C127.404 14.66 126.824 14.9067 126.344 15.4C125.877 15.8933 125.644 16.5667 125.644 17.42C125.644 18.2733 125.877 18.9467 126.344 19.44C126.824 19.9333 127.404 20.18 128.084 20.18C128.764 20.18 129.344 19.9333 129.824 19.44C130.304 18.9333 130.544 18.2533 130.544 17.4ZM141.098 23.16C140.005 23.16 139.018 22.9267 138.138 22.46C137.271 21.9933 136.585 21.3267 136.078 20.46C135.585 19.5933 135.338 18.58 135.338 17.42C135.338 16.2733 135.591 15.2667 136.098 14.4C136.605 13.52 137.298 12.8467 138.178 12.38C139.058 11.9133 140.045 11.68 141.138 11.68C142.231 11.68 143.218 11.9133 144.098 12.38C144.978 12.8467 145.671 13.52 146.178 14.4C146.685 15.2667 146.938 16.2733 146.938 17.42C146.938 18.5667 146.678 19.58 146.158 20.46C145.651 21.3267 144.951 21.9933 144.058 22.46C143.178 22.9267 142.191 23.16 141.098 23.16ZM141.098 20.2C141.751 20.2 142.305 19.96 142.758 19.48C143.225 19 143.458 18.3133 143.458 17.42C143.458 16.5267 143.231 15.84 142.778 15.36C142.338 14.88 141.791 14.64 141.138 14.64C140.471 14.64 139.918 14.88 139.478 15.36C139.038 15.8267 138.818 16.5133 138.818 17.42C138.818 18.3133 139.031 19 139.458 19.48C139.898 19.96 140.445 20.2 141.098 20.2ZM164.973 11.84L161.953 23H158.173L156.413 15.76L154.593 23H150.833L147.793 11.84H151.213L152.793 19.82L154.673 11.84H158.293L160.193 19.78L161.753 11.84H164.973Z" fill="#2C3136"/>
<defs>
<clipPath id="clip0_307_59">
<rect width="53" height="32" fill="white"/>
</clipPath>
</defs>
</svg>
