<svg width="15" height="17" viewBox="0 0 15 17" fill="none" xmlns="http://www.w3.org/2000/svg">
<path d="M2.90252 13.5442C2.65252 13.3775 2.43752 13.165 2.18586 12.8642C2.05523 12.7043 1.92578 12.5435 1.79752 12.3817C1.41169 11.9025 1.16836 11.6817 0.916691 11.5908C0.708606 11.5161 0.53872 11.3618 0.444405 11.1619C0.35009 10.9619 0.339071 10.7327 0.413774 10.5246C0.488477 10.3165 0.642781 10.1466 0.842742 10.0523C1.0427 9.95798 1.27194 9.94696 1.48002 10.0217C2.10669 10.2467 2.53086 10.6342 3.10252 11.345C3.02419 11.2475 3.38586 11.7008 3.46336 11.7942C3.62169 11.9833 3.73836 12.0983 3.83002 12.1592C4.00002 12.2733 4.31919 12.3225 4.78836 12.2758C4.80752 11.9575 4.86669 11.6483 4.95669 11.3633C2.48336 10.7583 1.08336 9.16333 1.08336 6.03333C1.08336 5 1.39169 4.07 1.96502 3.29C1.78336 2.545 1.81086 1.64417 2.21669 0.629999C2.26275 0.515278 2.33375 0.412241 2.42455 0.328356C2.51536 0.244471 2.62369 0.181839 2.74169 0.144999C2.80919 0.124999 2.84752 0.115832 2.91502 0.105832C3.58419 0.00333223 4.52919 0.247499 5.76086 1.01917C6.49485 0.847568 7.24624 0.76144 8.00002 0.762499C8.76002 0.762499 9.51502 0.849166 10.2367 1.01917C11.4675 0.241665 12.4142 -0.00250109 13.0884 0.105832C13.1592 0.116666 13.2192 0.130832 13.27 0.147499C13.3857 0.185646 13.4916 0.248694 13.5803 0.332201C13.669 0.415709 13.7383 0.517645 13.7834 0.630832C14.1892 1.64417 14.2167 2.545 14.035 3.28917C14.6109 4.06917 14.9167 4.99333 14.9167 6.03333C14.9167 9.16417 13.5217 10.7542 11.0484 11.36C11.1525 11.7058 11.2067 12.0925 11.2067 12.51C11.2068 13.2645 11.2034 14.0189 11.1967 14.7733C11.3838 14.8142 11.5512 14.9182 11.6706 15.068C11.7901 15.2177 11.8542 15.4041 11.8524 15.5956C11.8505 15.7871 11.7827 15.9722 11.6604 16.1196C11.5381 16.267 11.3688 16.3678 11.1809 16.405C10.2317 16.595 9.52836 15.9617 9.52836 15.1342L9.53002 14.7625L9.53419 14.175C9.53836 13.585 9.54002 13.06 9.54002 12.51C9.54002 11.9292 9.38752 11.55 9.18586 11.3767C8.63502 10.9017 8.91419 9.9975 9.63586 9.91667C12.1084 9.63917 13.25 8.68167 13.25 6.03333C13.25 5.2375 12.99 4.58 12.4892 4.03C12.3837 3.91437 12.3129 3.77136 12.2849 3.61734C12.2568 3.46333 12.2728 3.30454 12.3309 3.15917C12.4692 2.81417 12.5284 2.36167 12.4109 1.81417L12.4025 1.81667C11.9934 1.9325 11.4775 2.18333 10.8542 2.6075C10.7537 2.67571 10.6395 2.72112 10.5196 2.74056C10.3996 2.75999 10.2769 2.75297 10.16 2.72C9.45661 2.52524 8.7299 2.42739 8.00002 2.42917C7.25836 2.42917 6.52336 2.52833 5.84002 2.72083C5.72354 2.75355 5.60133 2.7605 5.48188 2.74122C5.36244 2.72194 5.24863 2.67687 5.14836 2.60917C4.52169 2.18667 4.00336 1.93667 3.59169 1.82C3.47169 2.36417 3.53086 2.815 3.66836 3.15917C3.72653 3.30446 3.74261 3.46321 3.71476 3.61722C3.6869 3.77123 3.61624 3.91428 3.51086 4.03C3.01336 4.575 2.75002 5.245 2.75002 6.03333C2.75002 8.67667 3.89252 9.64 6.35169 9.91667C7.07252 9.9975 7.35252 10.8975 6.80502 11.3733C6.64502 11.5133 6.44752 11.9833 6.44752 12.51V15.135C6.44752 15.9567 5.75169 16.5725 4.81419 16.4083C4.624 16.3749 4.4513 16.2765 4.32562 16.1299C4.19994 15.9833 4.12908 15.7976 4.12514 15.6045C4.12121 15.4115 4.18444 15.223 4.30404 15.0714C4.42364 14.9198 4.59218 14.8145 4.78086 14.7733V13.9483C4.02252 13.9992 3.39586 13.875 2.90252 13.5442Z" fill="#2C3136"/>
</svg>
