<svg width="52" height="32" viewBox="0 0 52 32" fill="none" xmlns="http://www.w3.org/2000/svg">
<g clip-path="url(#clip0_399_6)">
<g clip-path="url(#clip1_399_6)">
<path d="M0 15.8261C0 7.08558 7.02828 0 15.6981 0H36.3019C44.9718 0 52 7.08558 52 15.8261V31.6522H15.6981C7.02828 31.6522 0 24.5666 0 15.8261Z" fill="#2C3136"/>
<path d="M36.3019 5.93478H15.6981C10.2795 5.93478 5.88679 10.3633 5.88679 15.8261C5.88679 21.2889 10.2795 25.7174 15.6981 25.7174H36.3019C41.7205 25.7174 46.1132 21.2889 46.1132 15.8261C46.1132 10.3633 41.7205 5.93478 36.3019 5.93478Z" fill="#F0F4F7"/>
</g>
<path d="M17.5534 10.4948V21.6522H14.4514V10.4948H17.5534ZM26.6676 15.9232C27.3218 16.0709 27.8388 16.398 28.2186 16.9044C28.609 17.4003 28.8042 17.97 28.8042 18.6136C28.8042 19.5632 28.4771 20.307 27.823 20.8451C27.1688 21.3832 26.2509 21.6522 25.0692 21.6522H19.5459V10.4948H24.8951C26.0346 10.4948 26.9261 10.748 27.5697 11.2545C28.2239 11.7609 28.551 12.4731 28.551 13.391C28.551 14.0451 28.3769 14.5938 28.0287 15.0369C27.6911 15.4695 27.2374 15.7649 26.6676 15.9232ZM22.6478 14.9261H24.2146C24.9954 14.9261 25.3857 14.6043 25.3857 13.9607C25.3857 13.296 24.9954 12.9637 24.2146 12.9637H22.6478V14.9261ZM24.452 19.1517C25.2328 19.1517 25.6231 18.8246 25.6231 18.1705C25.6231 17.8329 25.5176 17.5744 25.3066 17.395C25.1061 17.2156 24.816 17.126 24.4362 17.126H22.6478V19.1517H24.452ZM39.2048 14.214C39.2048 14.8892 39.0466 15.5064 38.73 16.0656C38.4241 16.6143 37.9546 17.0574 37.3215 17.395C36.699 17.7221 35.9341 17.8856 35.0267 17.8856H33.4916V21.6522H30.3897V10.4948H35.0267C35.9235 10.4948 36.6832 10.6531 37.3057 10.9696C37.9387 11.2861 38.4135 11.724 38.73 12.2832C39.0466 12.8424 39.2048 13.486 39.2048 14.214ZM34.726 15.4167C35.6018 15.4167 36.0396 15.0158 36.0396 14.214C36.0396 13.4016 35.6018 12.9954 34.726 12.9954H33.4916V15.4167H34.726Z" fill="#2C3136"/>
</g>
<defs>
<clipPath id="clip0_399_6">
<rect width="52" height="32" fill="white"/>
</clipPath>
<clipPath id="clip1_399_6">
<rect width="52" height="31.6522" fill="white"/>
</clipPath>
</defs>
</svg>
