<svg width="698" height="597" viewBox="0 0 698 597" fill="none" xmlns="http://www.w3.org/2000/svg">
<path d="M446.22 590.202C440.397 588.645 434.631 586.821 428.94 584.729L310.271 466.06C308.179 460.369 306.355 454.603 304.798 448.78L446.22 590.202Z" fill="white" fill-opacity="0.56"/>
<path d="M481.893 596.358C477.436 595.998 472.989 595.489 468.56 594.831L300.169 426.44C299.511 422.011 299.002 417.564 298.642 413.107L481.893 596.358Z" fill="white" fill-opacity="0.56"/>
<path d="M511.607 596.557C507.824 596.812 504.034 596.96 500.243 597L298 394.757C298.04 390.966 298.188 387.176 298.443 383.393L511.607 596.557Z" fill="white" fill-opacity="0.56"/>
<path d="M537.65 593.083C534.311 593.753 530.959 594.338 527.597 594.837L300.163 367.403C300.662 364.041 301.247 360.689 301.917 357.35L537.65 593.083Z" fill="white" fill-opacity="0.56"/>
<path d="M560.991 586.909C557.992 587.9 554.974 588.818 551.939 589.664L305.336 343.061C306.182 340.026 307.1 337.008 308.091 334.009L560.991 586.909Z" fill="white" fill-opacity="0.56"/>
<path d="M582.148 578.549C579.429 579.808 576.687 581.003 573.925 582.133L312.867 321.075C313.997 318.313 315.192 315.571 316.451 312.852L582.148 578.549Z" fill="white" fill-opacity="0.56"/>
<path d="M601.418 568.304C598.944 569.799 596.445 571.237 593.922 572.615L322.385 301.078C323.763 298.555 325.201 296.056 326.696 293.582L601.418 568.304Z" fill="white" fill-opacity="0.56"/>
<path d="M618.987 556.358C616.737 558.07 614.458 559.728 612.154 561.332L333.668 282.846C335.272 280.542 336.93 278.263 338.642 276.013L618.987 556.358Z" fill="white" fill-opacity="0.56"/>
<path d="M634.968 542.823C632.929 544.74 630.86 546.606 628.761 548.422L346.578 266.239C348.394 264.14 350.26 262.071 352.177 260.032L634.968 542.823Z" fill="white" fill-opacity="0.56"/>
<path d="M649.422 527.761C647.606 529.86 645.74 531.929 643.823 533.968L361.032 251.177C363.071 249.26 365.14 247.394 367.239 245.578L649.422 527.761Z" fill="white" fill-opacity="0.56"/>
<path d="M662.332 511.154C660.728 513.458 659.07 515.737 657.358 517.987L377.013 237.642C379.263 235.93 381.542 234.272 383.846 232.668L662.332 511.154Z" fill="white" fill-opacity="0.56"/>
<path d="M673.615 492.922C672.237 495.445 670.799 497.944 669.304 500.418L394.582 225.696C397.056 224.201 399.555 222.763 402.078 221.385L673.615 492.922Z" fill="white" fill-opacity="0.56"/>
<path d="M683.133 472.925C682.003 475.687 680.809 478.428 679.55 481.147L413.853 215.45C416.572 214.191 419.313 212.997 422.075 211.867L683.133 472.925Z" fill="white" fill-opacity="0.56"/>
<path d="M690.664 450.939C689.818 453.974 688.9 456.992 687.909 459.991L435.009 207.091C438.008 206.1 441.026 205.182 444.061 204.336L690.664 450.939Z" fill="white" fill-opacity="0.56"/>
<path d="M695.837 426.597C695.338 429.959 694.753 433.311 694.083 436.65L458.35 200.917C461.689 200.247 465.041 199.662 468.403 199.163L695.837 426.597Z" fill="white" fill-opacity="0.56"/>
<path d="M698 399.243C697.96 403.034 697.812 406.824 697.557 410.607L484.393 197.443C488.176 197.188 491.966 197.04 495.757 197L698 399.243Z" fill="white" fill-opacity="0.56"/>
<path d="M695.831 367.56C696.489 371.989 696.998 376.436 697.358 380.893L514.107 197.642C518.564 198.002 523.011 198.511 527.44 199.169L695.831 367.56Z" fill="white" fill-opacity="0.56"/>
<path d="M685.729 327.94C687.821 333.631 689.645 339.397 691.202 345.22L549.78 203.798C555.603 205.355 561.369 207.179 567.06 209.271L685.729 327.94Z" fill="white" fill-opacity="0.56"/>
<path d="M601.102 225.605C614.747 233.831 627.622 243.831 639.395 255.605C651.169 267.378 661.169 280.253 669.395 293.898L601.102 225.605Z" fill="white" fill-opacity="0.56"/>
<path d="M326.605 500.102L394.898 568.395C381.253 560.169 368.378 550.169 356.605 538.395C344.831 526.622 334.831 513.747 326.605 500.102Z" fill="white" fill-opacity="0.56"/>
<circle cx="289" cy="289" r="289" fill="#F7F8FA"/>
</svg>
